<?xml version="1.0" encoding="UTF-8"?>
<svg xmlns="http://www.w3.org/2000/svg" xmlns:xlink="http://www.w3.org/1999/xlink" width="551pt" height="551pt" viewBox="0 0 551 551" version="1.1">
<g id="surface1">
<path style=" stroke:none;fill-rule:nonzero;fill:rgb(0%,0%,0%);fill-opacity:1;" d="M 0 275.5 L 0 551 L 551 551 L 551 0 L 0 0 Z M 107.101562 148.941406 C 112.78125 166.332031 115.367188 172.015625 116.226562 169.605469 C 116.914062 167.710938 120.703125 156.863281 124.492188 145.5 L 131.722656 124.835938 L 152.042969 124.835938 L 159.960938 149.632812 L 167.882812 174.253906 L 176.148438 149.457031 L 184.242188 124.664062 L 194.570312 124.492188 C 200.253906 124.492188 204.902344 124.835938 204.902344 125.179688 C 204.902344 125.695312 199.394531 143.433594 192.503906 164.785156 L 180.109375 203.351562 L 168.054688 202.835938 L 155.828125 202.320312 L 149.113281 180.28125 C 145.328125 168.226562 141.710938 158.414062 141.195312 158.414062 C 140.675781 158.414062 136.890625 168.398438 132.929688 180.796875 L 125.523438 203.179688 L 101.761719 203.179688 L 89.539062 165.644531 C 82.996094 145.152344 77.484375 127.417969 77.484375 126.386719 C 77.484375 125.007812 81.445312 124.492188 88.332031 124.664062 L 99.007812 124.835938 Z M 235.550781 138.957031 L 236.070312 153.246094 L 264.996094 153.246094 L 265.511719 138.957031 L 266.03125 124.835938 L 276.878906 124.492188 L 287.554688 124.320312 L 287.554688 203.179688 L 265.167969 203.179688 L 265.167969 172.1875 L 235.898438 172.1875 L 235.898438 203.179688 L 213.511719 203.179688 L 213.511719 124.320312 L 224.359375 124.664062 L 235.035156 124.835938 Z M 321.472656 131.550781 C 324.230469 135.855469 328.535156 142.914062 331.117188 147.21875 L 335.9375 155.3125 L 345.0625 139.988281 L 354.191406 124.835938 L 364.867188 124.492188 C 370.546875 124.148438 375.367188 124.320312 375.367188 124.664062 C 375.367188 125.007812 368.824219 136.371094 360.734375 149.976562 L 346.097656 174.597656 L 346.097656 203.179688 L 323.710938 203.179688 L 323.710938 174.769531 L 309.078125 150.148438 C 300.984375 136.71875 294.441406 125.351562 294.441406 125.179688 C 294.441406 125.007812 299.433594 124.492188 305.632812 124.320312 L 316.824219 123.976562 Z M 106.757812 229.007812 C 110.890625 242.441406 114.847656 252.597656 115.539062 251.910156 C 116.054688 251.222656 120.015625 240.203125 124.148438 227.632812 L 131.722656 204.730469 L 141.882812 205.246094 L 152.042969 205.765625 L 159.960938 230.558594 L 167.882812 255.183594 L 184.414062 204.902344 L 194.917969 204.902344 C 204.042969 204.902344 205.246094 205.246094 204.386719 207.832031 C 204.042969 209.550781 198.359375 227.460938 191.816406 247.605469 L 179.9375 284.28125 L 168.054688 283.765625 L 156 283.25 L 149.113281 261.207031 C 145.328125 249.15625 141.882812 239.339844 141.195312 239.339844 C 140.675781 239.339844 136.890625 249.328125 132.929688 261.726562 L 125.523438 284.109375 L 101.761719 284.109375 L 89.539062 246.398438 C 82.996094 225.738281 77.484375 208.003906 77.484375 206.796875 C 77.484375 205.59375 81.273438 204.902344 88.332031 204.902344 L 99.179688 204.902344 Z M 235.898438 219.539062 L 235.898438 234.175781 L 264.996094 234.175781 L 265.511719 219.882812 L 266.03125 205.765625 L 276.878906 205.246094 L 287.554688 204.730469 L 287.554688 284.28125 L 276.878906 283.765625 L 266.03125 283.25 L 265.511719 268.097656 L 264.996094 253.117188 L 235.898438 253.117188 L 235.898438 284.109375 L 213.511719 284.109375 L 213.511719 204.902344 L 235.898438 204.902344 Z M 365.898438 238.824219 C 374.335938 257.59375 382.085938 275.5 383.460938 278.425781 L 385.699219 284.109375 L 363.144531 284.109375 L 359.699219 276.359375 L 356.257812 268.613281 L 323.539062 268.613281 L 320.269531 276.359375 L 316.996094 284.109375 L 305.632812 284.109375 C 299.433594 284.109375 294.441406 283.765625 294.441406 283.59375 C 294.441406 283.25 295.472656 280.664062 296.851562 277.910156 C 299.777344 272.226562 324.917969 214.71875 327.328125 208.691406 C 328.707031 205.246094 329.910156 204.902344 339.898438 204.902344 L 350.917969 204.902344 Z M 451.132812 213.511719 L 451.132812 222.121094 L 427.023438 222.121094 L 427.023438 284.109375 L 404.640625 284.109375 L 404.640625 222.121094 L 380.535156 222.121094 L 380.535156 204.902344 L 451.132812 204.902344 Z M 225.910156 288.929688 C 257.59375 302.878906 257.421875 347.992188 225.566406 362.109375 C 214.203125 367.105469 197.84375 366.757812 185.445312 361.078125 C 152.386719 345.925781 156.347656 298.054688 191.472656 286.519531 C 200.941406 283.421875 215.921875 284.453125 225.910156 288.929688 Z M 98.148438 300.46875 L 98.148438 315.101562 L 129.140625 315.101562 L 129.140625 285.832031 L 151.523438 285.832031 L 151.523438 365.039062 L 129.140625 365.039062 L 129.140625 334.042969 L 98.148438 334.042969 L 98.148438 365.210938 L 87.472656 364.691406 L 76.625 364.175781 L 76.105469 327.15625 C 75.933594 306.839844 76.105469 289.273438 76.453125 288.070312 C 77.140625 286.519531 80.929688 285.832031 87.816406 285.832031 L 98.148438 285.832031 Z M 283.25 309.421875 C 287.035156 321.992188 290.824219 332.667969 291.339844 333.183594 C 291.859375 333.699219 294.785156 326.46875 297.710938 317.339844 C 300.8125 308.042969 304.425781 297.195312 305.976562 293.0625 L 308.558594 285.832031 L 328.707031 285.832031 L 335.59375 308.042969 C 339.554688 320.269531 342.652344 331.117188 342.652344 332.148438 C 342.652344 333.183594 343.34375 334.042969 344.03125 334.042969 C 344.890625 334.042969 348.851562 323.195312 352.984375 309.9375 L 360.5625 285.832031 L 371.582031 285.832031 C 381.222656 285.832031 382.429688 286.175781 381.566406 288.757812 C 380.878906 290.308594 375.023438 307.871094 368.480469 327.84375 L 356.601562 364.175781 L 344.71875 364.691406 L 333.011719 365.210938 L 325.605469 341.792969 C 321.644531 328.878906 317.859375 318.546875 317.515625 319.0625 C 316.996094 319.40625 313.382812 329.738281 309.25 341.964844 L 301.84375 364.175781 L 278.253906 364.175781 L 265.683594 326.296875 C 258.96875 305.460938 253.289062 287.726562 253.289062 287.035156 C 253.117188 286.347656 258.28125 285.832031 264.480469 286.175781 L 276.015625 286.691406 Z M 283.25 309.421875 "/>
<path style=" stroke:none;fill-rule:nonzero;fill:rgb(0%,0%,0%);fill-opacity:1;" d="M 338.863281 230.042969 C 337.832031 231.59375 330.601562 250.015625 330.601562 250.878906 C 330.601562 251.222656 334.90625 251.394531 340.070312 251.394531 C 345.234375 251.394531 349.539062 250.878906 349.367188 250.015625 C 349.023438 246.226562 339.726562 228.492188 338.863281 230.042969 Z M 338.863281 230.042969 "/>
<path style=" stroke:none;fill-rule:nonzero;fill:rgb(0%,0%,0%);fill-opacity:1;" d="M 196.121094 305.632812 C 189.234375 309.25 185.960938 315.621094 185.960938 324.917969 C 185.960938 335.765625 190.613281 343.34375 198.875 346.097656 C 217.988281 352.46875 233.660156 333.183594 224.703125 314.414062 C 219.882812 304.253906 206.28125 300.121094 196.121094 305.632812 Z M 196.121094 305.632812 "/>
</g>
</svg>
